<mxfile host="app.diagrams.net">
  <diagram name="Caso de Uso - Compra">
    <mxGraphModel>
      <root>
        <mxCell id="0"/>
        <mxCell id="1" parent="0"/>

        <mxCell id="cliente" value="Cliente" style="shape=umlActor;" vertex="1" parent="1">
          <mxGeometry x="80" y="200" width="40" height="80" as="geometry"/>
        </mxCell>

        <mxCell id="visualizar" value="Visualizar Produtos" style="ellipse;whiteSpace=wrap;" vertex="1" parent="1">
          <mxGeometry x="300" y="180" width="160" height="60" as="geometry"/>
        </mxCell>
        <mxCell id="carrinho" value="Adicionar ao Carrinho" style="ellipse;whiteSpace=wrap;" vertex="1" parent="1">
          <mxGeometry x="300" y="280" width="160" height="60" as="geometry"/>
        </mxCell>
        <mxCell id="pedido" value="Finalizar Pedido" style="ellipse;whiteSpace=wrap;" vertex="1" parent="1">
          <mxGeometry x="300" y="380" width="160" height="60" as="geometry"/>
        </mxCell>
        <mxCell id="historico" value="Ver HistÃ³rico" style="ellipse;whiteSpace=wrap;" vertex="1" parent="1">
          <mxGeometry x="300" y="480" width="160" height="60" as="geometry"/>
        </mxCell>

        <mxCell id="cli-visualizar" edge="1" parent="1" source="cliente" target="visualizar"/>
        <mxCell id="cli-carrinho" edge="1" parent="1" source="cliente" target="carrinho"/>
        <mxCell id="cli-pedido" edge="1" parent="1" source="cliente" target="pedido"/>
        <mxCell id="cli-historico" edge="1" parent="1" source="cliente" target="historico"/>
      </root>
    </mxGraphModel>
  </diagram>
</mxfile>